<?xml version="1.0" encoding="UTF-8"?>
<svg xmlns="http://www.w3.org/2000/svg" viewBox="0 0 1200 520"
     width="1200" height="520" role="img"
     aria-label="Single-panel hand-drawn sketch reading left to right. On the left, a rounded box labelled 'new prompt'. An arrow goes to a stack of papers labelled 'reference set'. Another arrow goes to a small box with curly braces labelled 'grader'. Beyond that, two short columns of numbers headed 'baseline' and 'new', with a curly bracket and annotation 'within tolerance?'. On the right, a trapezoid gate with two outputs: a short arrow down to 'ship', and a long arrow looping back across the top of the picture to the 'new prompt' box, labelled 'block. rubric edit? argue it explicitly.' Caption beneath: 'what a calibration gate actually does.'">
  <rect width="1200" height="520" fill="#0b0b0f"/>
  
<defs>
  <marker id="arr" viewBox="0 0 10 10" refX="9" refY="5"
          markerWidth="6" markerHeight="6" orient="auto">
    <path d="M0,0 L10,5 L0,10 z" fill="#d0d0d6"/>
  </marker>
  <marker id="arr-amber" viewBox="0 0 10 10" refX="9" refY="5"
          markerWidth="6" markerHeight="6" orient="auto">
    <path d="M0,0 L10,5 L0,10 z" fill="#c88a20"/>
  </marker>
</defs>

  <path d="M 93.9,270.2 L 207.3,269.9 Q 220.0,270.0 220.0,284.3 L 219.1,326.0 Q 220.0,340.0 206.4,340.9 L 92.8,339.4 Q 80.0,340.0 78.8,326.9 L 80.6,282.6 Q 80.0,270.0 95.4,271.4 Z" fill="none" stroke="#d0d0d6" stroke-width="3" stroke-linecap="round" stroke-linejoin="round"/>
  <text x="150.0" y="302" text-anchor="middle" font-family="JetBrains Mono, ui-monospace, monospace" font-weight="bold" font-size="18" fill="#e8e8ed">new</text>
  <text x="150.0" y="324" text-anchor="middle" font-family="JetBrains Mono, ui-monospace, monospace" font-weight="bold" font-size="18" fill="#e8e8ed">prompt</text>
  <path d="M 224.0,305.0 L 239.3,301.5 L 253.3,296.5 L 269.1,292.9 L 284.0,290.0" fill="none" stroke="#d0d0d6" stroke-width="3" stroke-linecap="round" stroke-linejoin="round" marker-end="url(#arr)"/>
  <path d="M 300.5,270.7 L 329.7,271.8 L 361.7,273.7 L 392.1,272.7 L 392.0,292.8 L 391.8,310.9 L 394.5,334.5 L 363.7,333.0 L 331.1,330.6 L 300.9,329.9 L 303.3,311.5 L 303.7,291.4 Z" fill="none" stroke="#c8c8d0" stroke-width="3" stroke-linecap="round" stroke-linejoin="round"/><path d="M 300.3,269.7 L 325.5,266.5 L 360.1,267.8 L 390.4,267.5 L 385.9,288.6 L 389.4,306.8 L 385.9,327.2 L 360.3,329.3 L 326.1,326.7 L 296.0,325.8 L 299.5,306.4 L 298.3,287.7 Z" fill="none" stroke="#c8c8d0" stroke-width="3" stroke-linecap="round" stroke-linejoin="round"/><path d="M 292.5,265.2 L 322.2,264.7 L 352.1,263.6 L 382.6,262.8 L 386.4,285.5 L 383.0,305.9 L 382.6,323.5 L 355.8,324.7 L 322.0,326.4 L 292.6,322.8 L 295.4,303.1 L 293.0,281.9 Z" fill="none" stroke="#c8c8d0" stroke-width="3" stroke-linecap="round" stroke-linejoin="round"/><path d="M 288.0,260.4 L 318.7,260.5 L 349.4,259.8 L 382.3,259.9 L 380.4,281.8 L 378.4,298.3 L 382.0,321.6 L 348.7,318.4 L 321.2,322.2 L 288.5,322.3 L 291.9,300.5 L 289.6,278.0 Z" fill="none" stroke="#d0d0d6" stroke-width="3" stroke-linecap="round" stroke-linejoin="round"/><path d="M 302.0,278.0 L 315.4,278.9 L 330.1,278.4 L 344.9,278.0" fill="none" stroke="#d0d0d6" stroke-width="3" stroke-linecap="round" stroke-linejoin="round"/><path d="M 302.0,290.0 L 311.4,290.6 L 322.0,289.6 L 331.7,290.0" fill="none" stroke="#d0d0d6" stroke-width="3" stroke-linecap="round" stroke-linejoin="round"/><path d="M 302.0,302.0 L 313.5,302.4 L 325.3,301.5 L 338.3,302.0" fill="none" stroke="#d0d0d6" stroke-width="3" stroke-linecap="round" stroke-linejoin="round"/>
  <text x="341.0" y="352" text-anchor="middle" font-family="JetBrains Mono, ui-monospace, monospace" font-weight="bold" font-size="16" fill="#e8e8ed">reference set</text>
  <path d="M 396.0,290.0 L 413.1,297.0 L 430.2,302.1 L 447.8,308.2 L 464.0,315.0" fill="none" stroke="#d0d0d6" stroke-width="3" stroke-linecap="round" stroke-linejoin="round" marker-end="url(#arr)"/>
  <path d="M 467.6,283.8 L 493.1,282.8 L 515.0,284.3 L 540.4,283.2 L 539.3,307.0 L 542.4,325.8 L 541.0,345.4 L 514.9,342.7 L 490.9,347.1 L 471.0,347.3 L 467.6,325.7 L 469.9,306.2 Z" fill="none" stroke="#d0d0d6" stroke-width="3" stroke-linecap="round" stroke-linejoin="round"/><text x="505.0" y="324.0" text-anchor="middle" font-family="JetBrains Mono, ui-monospace, monospace" font-weight="bold" font-size="28" fill="#e8e8ed">{ }</text>
  <text x="505.0" y="373" text-anchor="middle" font-family="JetBrains Mono, ui-monospace, monospace" font-weight="bold" font-size="16" fill="#e8e8ed">grader</text>
  <path d="M 544.0,315.0 L 548.1,314.1 L 552.2,311.3 L 558.0,310.2 L 562.0,307.5" fill="none" stroke="#d0d0d6" stroke-width="3" stroke-linecap="round" stroke-linejoin="round" marker-end="url(#arr)"/>
  <text x="590" y="265" text-anchor="middle" font-family="JetBrains Mono, ui-monospace, monospace" font-weight="bold" font-size="16" fill="#c8c8d0">baseline</text>
  <text x="660" y="265" text-anchor="middle" font-family="JetBrains Mono, ui-monospace, monospace" font-weight="bold" font-size="16" fill="#c8c8d0">new</text>
  <text x="590" y="298" text-anchor="middle" font-family="JetBrains Mono, ui-monospace, monospace" font-weight="bold" font-size="18" fill="#e8e8ed">3.4</text>
  <text x="660" y="298" text-anchor="middle" font-family="JetBrains Mono, ui-monospace, monospace" font-weight="bold" font-size="18" fill="#e8e8ed">3.5</text>
  <text x="590" y="323" text-anchor="middle" font-family="JetBrains Mono, ui-monospace, monospace" font-weight="bold" font-size="18" fill="#e8e8ed">3.6</text>
  <text x="660" y="323" text-anchor="middle" font-family="JetBrains Mono, ui-monospace, monospace" font-weight="bold" font-size="18" fill="#e8e8ed">3.4</text>
  <text x="590" y="348" text-anchor="middle" font-family="JetBrains Mono, ui-monospace, monospace" font-weight="bold" font-size="18" fill="#e8e8ed">3.3</text>
  <text x="660" y="348" text-anchor="middle" font-family="JetBrains Mono, ui-monospace, monospace" font-weight="bold" font-size="18" fill="#e8e8ed">3.2</text>
  <text x="590" y="373" text-anchor="middle" font-family="JetBrains Mono, ui-monospace, monospace" font-weight="bold" font-size="18" fill="#e8e8ed">3.5</text>
  <text x="660" y="373" text-anchor="middle" font-family="JetBrains Mono, ui-monospace, monospace" font-weight="bold" font-size="18" fill="#e8e8ed">3.3</text>
  <path d="M 730.0,280.0 C 738.4,293.5 744.0,302.5 744.0,325.0 M 744.0,325.0 C 744.0,347.5 738.4,356.5 730.0,370.0" fill="none" stroke="#d0d0d6" stroke-width="3" stroke-linecap="round" stroke-linejoin="round"/>
  <text x="754" y="330.0" font-family="JetBrains Mono, ui-monospace, monospace" font-weight="bold" font-size="15" font-style="italic" fill="#c8c8d0">within tolerance?</text>
  <path d="M 921.2,266.0 L 996.5,292.1 L 994.3,355.9 L 922.0,381.9 Z" fill="none" stroke="#d0d0d6" stroke-width="3" stroke-linecap="round" stroke-linejoin="round"/>
  <path d="M 997.0,322.5 L 1029.8,358.1 L 1068.0,417.0" fill="none" stroke="#d0d0d6" stroke-width="3" stroke-linecap="round" stroke-linejoin="round" marker-end="url(#arr)"/>
  <text x="1080" y="445" text-anchor="middle" font-family="JetBrains Mono, ui-monospace, monospace" font-weight="bold" font-size="18" fill="#e8e8ed">ship</text>
  <path d="M 950.0,263.0 L 950.9,100.2 L 150.3,99.7 L 150.0,266.0" fill="none" stroke="#c88a20" stroke-width="3" stroke-linecap="round" stroke-linejoin="round" marker-end="url(#arr-amber)"/>
  <text x="1030" y="50" font-family="JetBrains Mono, ui-monospace, monospace" font-weight="bold" font-size="17" fill="#c88a20">block.</text>
  <text x="1030" y="72" font-family="JetBrains Mono, ui-monospace, monospace" font-weight="bold" font-size="17" fill="#c88a20">rubric edit?</text>
  <text x="1030" y="94" font-family="JetBrains Mono, ui-monospace, monospace" font-weight="bold" font-size="17" fill="#c88a20">argue it</text>
  <text x="1030" y="116" font-family="JetBrains Mono, ui-monospace, monospace" font-weight="bold" font-size="17" fill="#c88a20">explicitly</text>
  <text x="600.0" y="490" text-anchor="middle" font-family="JetBrains Mono, ui-monospace, monospace" font-weight="bold" font-size="22" fill="#e8e8ed">what a calibration gate actually does.</text>
</svg>
